<?xml version="1.0" encoding="UTF-8" standalone="no"?><!DOCTYPE svg PUBLIC "-//W3C//DTD SVG 1.1//EN" "http://www.w3.org/Graphics/SVG/1.1/DTD/svg11.dtd"><svg width="100%" height="100%" viewBox="0 0 400 400" version="1.1" xmlns="http://www.w3.org/2000/svg" xmlns:xlink="http://www.w3.org/1999/xlink" xml:space="preserve" xmlns:serif="http://www.serif.com/" style="fill-rule:evenodd;clip-rule:evenodd;stroke-linejoin:round;stroke-miterlimit:2;"><g id="Indigo"><path d="M294.9,165.2l0,-1.35c-0.301,-25.6 -9.533,-47.483 -27.7,-65.65c-10.634,-10.633 -22.55,-18.25 -35.75,-22.85l-0.351,0c-9.5,-3.267 -19.649,-4.934 -30.449,-5l-0.601,0c-11.133,0 -21.566,1.666 -31.299,5c-0.167,0.1 -0.334,0.183 -0.5,0.25c-13,4.5 -24.784,12.033 -35.35,22.6c-18.167,18.167 -27.417,40.05 -27.75,65.65l0,1.35c0,3.767 0.216,7.5 0.649,11.2c0.301,3.166 0.784,6.35 1.451,9.55c2.2,10.4 6.083,20.066 11.65,29c0.899,1.467 1.85,2.883 2.85,4.25l68.95,104.95c0.099,0.166 0.233,0.333 0.4,0.5c0.4,0.567 0.85,1.1 1.35,1.6c2.266,2.3 4.966,3.45 8.099,3.45l0.101,0c3.1,-0.101 5.767,-1.25 8,-3.45c0.566,-0.567 1.1,-1.217 1.6,-1.95c0.167,-0.166 0.283,-0.367 0.349,-0.6l49.7,-76.601l-31.25,-31.25c-8.266,5.167 -17.616,7.767 -28.049,7.801c-14.734,0 -27.317,-5.217 -37.75,-15.65c-10.433,-10.467 -15.667,-23.084 -15.701,-37.85c0,-14.8 5.217,-27.417 15.651,-37.85c10.433,-10.433 23.05,-15.65 37.849,-15.65c14.8,0 27.417,5.233 37.851,15.7c10.433,10.433 15.633,23.033 15.6,37.8c0.033,10.033 -2.367,19.067 -7.201,27.1l27.5,27.5l3.8,-5.901c0.901,-1.299 1.801,-2.649 2.7,-4.049c5.734,-9.166 9.618,-19.1 11.651,-29.8c0.566,-2.567 1.016,-5.117 1.349,-7.65c0,-0.3 0.05,-0.617 0.151,-0.95c0.3,-3.6 0.45,-7.333 0.45,-11.2m-69.351,28.55c6.634,-6.667 9.917,-14.683 9.851,-24.05c0.033,-9.367 -3.267,-17.367 -9.9,-24c-6.667,-6.7 -14.667,-10.05 -24,-10.05l0,34.1l-24.05,-24.05c-6.667,6.633 -10.017,14.65 -10.05,24.05c0.033,9.333 3.383,17.35 10.05,24.05c6.633,6.633 14.616,9.95 23.95,9.95c9.433,-0.033 17.483,-3.367 24.149,-10" style="fill:#61468b;fill-rule:nonzero;"/></g></svg>